<svg width="149px" height="40px" viewBox="0 0 149 40" version="1.1" xmlns="http://www.w3.org/2000/svg" xmlns:xlink="http://www.w3.org/1999/xlink">
    <!-- Generator: Sketch 46.2 (44496) - http://www.bohemiancoding.com/sketch -->
    <desc>Created with Sketch.</desc>
    <defs></defs>
    <g id="Symbols" stroke="none" stroke-width="1" fill="none" fill-rule="evenodd">
        <g id="Navigation-/-Mobile" transform="translate(-86.000000, -15.000000)">
            <g id="les-schwab-logo" transform="translate(86.000000, 15.000000)">
                <g>
                    <path d="M57.2324698,5.70017271 L56.9236615,7.41278066 C96.0651123,7.41278066 144.548014,7.41278066 145.757513,7.41278066 C145.422971,9.22763385 141.305527,31.3126079 141.073921,32.5651123 C140.224698,32.5651123 91.535924,32.5651123 52.2400691,32.5651123 L51.9312608,34.2777202 C92.1278066,34.2777202 141.665803,34.2777202 142.515026,34.2777202 C142.746632,32.9996546 147.507427,7.41278066 147.816235,5.72573402 C146.606736,5.70017271 97.2746114,5.70017271 57.2324698,5.70017271 Z" id="Shape" fill="#EC2127" fill-rule="nonzero"></path>
                    <path d="M141.073921,32.5651123 C141.305527,31.2870466 145.757513,7.41278066 145.757513,7.41278066 C145.757513,7.41278066 96.0651123,7.41278066 56.9236615,7.41278066 L52.2400691,32.5651123 C91.535924,32.5651123 140.224698,32.5651123 141.073921,32.5651123 Z" id="Shape" fill="#FCEE22" fill-rule="nonzero"></path>
                    <path d="M58.1846287,4.75440415 L59.0338515,0.178929188 L19.0174439,0.178929188 L18.1682211,4.75440415 L5.66148532,4.75440415 L0,35.1979275 L12.5067358,35.1979275 L11.6317789,39.8500864 L51.6481865,39.8500864 L52.5231434,35.1979275 L143.287047,35.1979275 C143.338515,34.9678756 143.544387,33.8176166 143.853195,32.0794473 L148.922798,4.75440415 L58.1846287,4.75440415 Z M13.1243523,38.6487047 C13.1500864,38.5208981 13.5875648,36.0925734 14.2566494,32.5395509 C15.5433506,25.5868739 17.6535406,14.3143351 18.9402418,7.38721934 C19.6093264,3.8597582 20.0468048,1.45699482 20.0725389,1.35474957 C20.4585492,1.35474957 57.5670121,1.35474957 57.5670121,1.35474957 C57.5670121,1.35474957 57.1037997,3.88531952 56.434715,7.38721934 C55.1480138,14.3143351 53.0378238,25.5868739 51.7511226,32.5395509 C51.082038,36.1181347 50.6188256,38.6487047 50.6188256,38.6487047 C50.6188256,38.6487047 13.6647668,38.6487047 13.1243523,38.6487047 Z M1.13229706,34.2521589 C1.46683938,32.462867 6.20189983,6.95267703 6.43350604,5.70017271 C6.69084629,5.70017271 11.2972366,5.70017271 18.7343696,5.70017271 L18.4255613,7.41278066 L13.7419689,32.5651123 L13.4331606,34.2777202 C6.09896373,34.2521589 1.4925734,34.2521589 1.13229706,34.2521589 Z M142.489292,34.2521589 C141.640069,34.2521589 92.1278066,34.2521589 51.9055268,34.2521589 L52.2143351,32.5395509 L56.8979275,7.38721934 L57.2067358,5.6746114 C97.2488774,5.6746114 147.790501,5.6746114 147.790501,5.6746114 C147.790501,5.6746114 142.746632,32.9740933 142.489292,34.2521589 Z" id="Shape" fill="#000000" fill-rule="nonzero"></path>
                    <g id="Group" transform="translate(56.100173, 13.036269)" fill-rule="nonzero" fill="#FFFFFF">
                        <polygon id="Shape" points="5.71295337 13.1896373 6.15043178 10.633506 4.09170984 10.633506 5.91882556 0.383419689 2.47046632 0.383419689 0.205872193 13.1896373"></polygon>
                        <polygon id="Shape" points="12.9442142 10.633506 10.4480138 10.633506 10.9369603 7.82176166 13.0728843 7.82176166 13.5103627 5.36787565 11.3744387 5.36787565 11.8119171 2.93955095 14.1022453 2.93955095 14.5397237 0.383419689 8.82677029 0.383419689 6.56217617 13.1896373 12.4810017 13.1896373"></polygon>
                        <path d="M15.3889465,6.41588946 C15.6205527,6.67150259 16.1094991,7.05492228 16.8815199,7.61727116 C17.6278066,8.15405872 18.091019,8.53747841 18.2711572,8.76753022 C18.4255613,8.99758204 18.4512953,9.50880829 18.3226252,10.2500864 C18.2711572,10.6079447 18.1682211,10.8635579 18.0138169,11.042487 C17.8594128,11.2214162 17.6792746,11.2981002 17.4734024,11.2981002 C17.2417962,11.2981002 17.0873921,11.2214162 17.035924,11.0936097 C16.9587219,10.9658031 16.984456,10.633506 17.061658,10.1478411 L17.3447323,8.56303972 L14.1537133,8.56303972 L13.9993092,9.40656304 C13.819171,10.3778929 13.793437,11.119171 13.8963731,11.6303972 C13.9993092,12.1671848 14.3595855,12.5761658 14.951468,12.9340242 C15.5433506,13.2663212 16.2896373,13.4452504 17.2160622,13.4452504 C18.0395509,13.4452504 18.8115717,13.2918826 19.4806563,13.0107081 C20.175475,12.7039724 20.6644214,12.346114 20.9474957,11.9115717 C21.256304,11.4770294 21.4879102,10.8124352 21.6423143,9.89222798 C21.8739206,8.63972366 21.8224525,7.71951641 21.5393782,7.15716753 C21.256304,6.59481865 20.4070812,5.8791019 19.0431779,4.98445596 C18.5542314,4.67772021 18.2968912,4.42210708 18.2196891,4.19205527 C18.142487,3.98756477 18.142487,3.6552677 18.2196891,3.22072539 C18.2711572,2.88842832 18.3740933,2.6328152 18.5027634,2.47944732 C18.6314335,2.32607945 18.8115717,2.2238342 18.9917098,2.2238342 C19.171848,2.2238342 19.3005181,2.27495682 19.3519862,2.40276339 C19.4034542,2.53056995 19.4034542,2.81174439 19.3262522,3.27184801 L19.146114,4.24317789 L22.337133,4.24317789 L22.4143351,3.73195164 C22.5944732,2.70949914 22.6202073,1.99378238 22.4915371,1.55924007 C22.362867,1.12469775 22.0025907,0.766839378 21.4364421,0.48566494 C20.8445596,0.204490501 20.1240069,0.0766839378 19.2233161,0.0766839378 C18.3998273,0.0766839378 17.6792746,0.204490501 17.061658,0.460103627 C16.4440415,0.715716753 15.955095,1.07357513 15.6205527,1.53367876 C15.2860104,1.99378238 15.0286701,2.70949914 14.848532,3.68082902 C14.7198618,4.37098446 14.7198618,4.93333333 14.8227979,5.36787565 C14.9772021,5.82797927 15.1573402,6.18583765 15.3889465,6.41588946 Z" id="Shape"></path>
                        <path d="M26.5317789,12.9595855 C27.1236615,13.2918826 27.8699482,13.4708117 28.7963731,13.4708117 C29.6455959,13.4708117 30.3918826,13.3174439 31.0867012,13.0362694 C31.7557858,12.7295337 32.2447323,12.3716753 32.5535406,11.937133 C32.8623489,11.5025907 33.0939551,10.8379965 33.2483592,9.91778929 C33.4799655,8.66528497 33.4284974,7.74507772 33.1454231,7.18272884 C32.8623489,6.62037997 32.0131261,5.90466321 30.6492228,5.01001727 C30.1602763,4.70328152 29.9029361,4.44766839 29.825734,4.21761658 C29.748532,4.01312608 29.748532,3.68082902 29.825734,3.2462867 C29.8772021,2.91398964 29.9801382,2.65837651 30.1088083,2.50500864 C30.2374784,2.35164076 30.4176166,2.24939551 30.5977547,2.24939551 C30.7778929,2.24939551 30.906563,2.30051813 30.9580311,2.4283247 C31.0094991,2.55613126 31.0094991,2.8373057 30.9322971,3.29740933 L30.7521589,4.26873921 L33.9431779,4.26873921 L34.02038,3.75751295 C34.2005181,2.73506045 34.2262522,2.0193437 34.097582,1.58480138 C33.9689119,1.15025907 33.6086356,0.792400691 33.042487,0.511226252 C32.4763385,0.230051813 31.7300518,0.10224525 30.829361,0.10224525 C30.0058722,0.10224525 29.2853195,0.230051813 28.6677029,0.48566494 C28.0500864,0.741278066 27.5611399,1.09913644 27.2265976,1.55924007 C26.8920553,2.0193437 26.634715,2.73506045 26.4545769,3.70639033 C26.3259067,4.39654577 26.3259067,4.95889465 26.4288428,5.39343696 C26.5317789,5.82797927 26.6861831,6.18583765 26.9435233,6.41588946 C27.1751295,6.67150259 27.664076,7.05492228 28.4360967,7.61727116 C29.1823834,8.15405872 29.6713299,8.53747841 29.825734,8.76753022 C29.9801382,8.99758204 30.0058722,9.50880829 29.8772021,10.2500864 C29.825734,10.6079447 29.7227979,10.8635579 29.5683938,11.042487 C29.4139896,11.2214162 29.2338515,11.2981002 29.0279793,11.2981002 C28.7963731,11.2981002 28.6419689,11.2214162 28.5905009,11.0936097 C28.5132988,10.9658031 28.5390328,10.633506 28.6162349,10.1478411 L28.8993092,8.56303972 L25.7340242,8.56303972 L25.57962,9.40656304 C25.3994819,10.3778929 25.3737478,11.119171 25.4766839,11.6303972 C25.6053541,12.1927461 25.9398964,12.6017271 26.5317789,12.9595855 Z" id="Shape"></path>
                        <path d="M34.2519862,11.451468 C34.3549223,12.0649396 34.6894646,12.5761658 35.2813472,12.9084629 C35.8732297,13.2663212 36.6709845,13.4452504 37.6746114,13.4452504 C38.6525043,13.4452504 39.5017271,13.2407599 40.2222798,12.8317789 C40.9685665,12.4227979 41.483247,11.937133 41.7663212,11.3747841 C42.0493955,10.8124352 42.3324698,9.89222798 42.564076,8.56303972 L42.6412781,8.05181347 L39.1929188,8.05181347 L38.9098446,9.66217617 C38.7811744,10.3778929 38.6525043,10.8124352 38.5495682,11.0169257 C38.4466321,11.1958549 38.2407599,11.2981002 38.0091537,11.2981002 C37.7518135,11.2981002 37.5974093,11.1958549 37.5459413,11.0169257 C37.4944732,10.8379965 37.5459413,10.4290155 37.6488774,9.78998273 L38.7039724,3.83419689 C38.8326425,3.16960276 38.9355786,2.76062176 39.0385147,2.55613126 C39.1414508,2.35164076 39.347323,2.24939551 39.6303972,2.24939551 C39.8877375,2.24939551 40.0164076,2.32607945 40.0678756,2.47944732 C40.1193437,2.6328152 40.0678756,3.0417962 39.9649396,3.70639033 L39.5789292,5.93022453 L43.0272884,5.93022453 L43.2331606,4.70328152 C43.4390328,3.50189983 43.4905009,2.6328152 43.3875648,2.07046632 C43.2846287,1.50811744 42.9243523,1.0224525 42.3324698,0.664594128 C41.7405872,0.281174439 40.9428325,0.10224525 39.9392055,0.10224525 C39.1929188,0.10224525 38.5238342,0.230051813 37.8804836,0.460103627 C37.262867,0.715716753 36.7481865,1.04801382 36.3621762,1.45699482 C35.9761658,1.89153713 35.6930915,2.32607945 35.5386874,2.78618307 C35.3842832,3.2462867 35.2298791,3.93644214 35.075475,4.8566494 L34.4063903,8.58860104 C34.2005181,9.89222798 34.1490501,10.8379965 34.2519862,11.451468 Z" id="Shape"></path>
                        <polygon id="Shape" points="46.4499136 13.1896373 47.4020725 7.82176166 48.4056995 7.82176166 47.4535406 13.1896373 50.8761658 13.1896373 53.166494 0.383419689 49.7181347 0.383419689 48.92038 4.95889465 47.916753 4.95889465 48.7145078 0.383419689 45.2661485 0.383419689 43.0015544 13.1896373"></polygon>
                        <path d="M57.3611399,13.1896373 C58.4419689,9.78998273 59.1882556,7.54058722 59.5227979,6.44145078 C59.3941278,8.97202073 59.3426598,11.2214162 59.3683938,13.1896373 L63.6402418,13.1896373 L67.4488774,0.383419689 L64.1034542,0.383419689 C63.1512953,3.34853195 62.2763385,6.39032815 61.5300518,9.50880829 L61.9932642,4.62659758 C62.2248705,2.17271157 62.3535406,0.766839378 62.3792746,0.383419689 L58.8279793,0.383419689 C57.6956822,4.01312608 56.8464594,6.95267703 56.3060449,9.20207254 L56.7177893,4.8566494 L57.1552677,0.383419689 L53.8098446,0.383419689 L53.0892919,13.1896373 L57.3611399,13.1896373 Z" id="Shape"></path>
                        <path d="M68.5039724,13.1896373 L69.0958549,10.8891192 L70.3568221,10.8891192 L70.1252159,13.1896373 L73.6250432,13.1896373 L73.9081174,0.383419689 L68.9671848,0.383419689 L64.952677,13.1896373 L68.5039724,13.1896373 Z M71.0773748,3.22072539 C70.8715026,5.36787565 70.7170984,7.18272884 70.6398964,8.61416235 L69.5075993,8.61416235 C69.7906736,7.48946459 70.3310881,5.6746114 71.0773748,3.22072539 Z" id="Shape"></path>
                        <path d="M80.9592401,12.9595855 C81.4224525,12.8062176 81.8084629,12.5250432 82.0915371,12.1160622 C82.3746114,11.7070812 82.5804836,11.0680484 82.7348877,10.1989637 L82.9407599,8.99758204 C83.0951641,8.15405872 83.0694301,7.54058722 82.8378238,7.13160622 C82.6319516,6.72262522 82.1430052,6.44145078 81.3709845,6.26252159 C82.1172712,6.10915371 82.6319516,5.8791019 82.9150259,5.57236615 C83.2238342,5.2656304 83.4297064,4.75440415 83.5583765,4.01312608 C83.7642487,2.91398964 83.7385147,2.09602763 83.4811744,1.61036269 C83.2238342,1.09913644 82.8378238,0.792400691 82.2974093,0.613471503 C81.7827288,0.460103627 80.9592401,0.357858377 79.8784111,0.357858377 L76.4557858,0.357858377 L74.1911917,13.164076 L78.1542314,13.164076 C79.5696028,13.1896373 80.4960276,13.1129534 80.9592401,12.9595855 Z M79.5696028,2.55613126 C79.9041451,2.55613126 80.1357513,2.58169257 80.2644214,2.6328152 C80.3673575,2.68393782 80.4445596,2.78618307 80.4960276,2.93955095 C80.5474957,3.09291883 80.5217617,3.37409326 80.4445596,3.78307427 C80.3158895,4.54991364 80.1872193,4.98445596 80.0585492,5.16338515 C79.9298791,5.31675302 79.7240069,5.39343696 79.3894646,5.39343696 C79.3122625,5.39343696 79.2093264,5.39343696 79.0549223,5.39343696 L79.5696028,2.55613126 Z M78.6946459,7.41278066 C79.1835924,7.43834197 79.4924007,7.48946459 79.5696028,7.61727116 C79.6725389,7.74507772 79.6725389,8.07737478 79.5696028,8.61416235 L79.3637306,9.81554404 C79.2607945,10.3267703 79.1578584,10.6590674 79.0034542,10.7868739 C78.8490501,10.9146805 78.5402418,10.9913644 78.0512953,11.0169257 L78.6946459,7.41278066 Z" id="Shape"></path>
                    </g>
                    <path d="M3.191019,32.5651123 C3.52556131,30.826943 7.64300518,8.63972366 7.8746114,7.41278066 C8.10621762,7.41278066 12.0435233,7.41278066 18.4255613,7.41278066 L18.7343696,5.70017271 C11.2972366,5.70017271 6.69084629,5.70017271 6.43350604,5.70017271 C6.20189983,6.95267703 1.46683938,32.4884283 1.13229706,34.2521589 C1.4925734,34.2521589 6.09896373,34.2521589 13.4331606,34.2521589 L13.7419689,32.5395509 C7.43713299,32.5651123 3.52556131,32.5651123 3.191019,32.5651123 Z" id="Shape" fill="#EC2127" fill-rule="nonzero"></path>
                    <path d="M7.8746114,7.38721934 C7.64300518,8.61416235 3.52556131,30.8013817 3.191019,32.5395509 C3.52556131,32.5395509 7.43713299,32.5395509 13.7419689,32.5395509 L18.4255613,7.38721934 C12.0435233,7.38721934 8.10621762,7.38721934 7.8746114,7.38721934 Z" id="Shape" fill="#FCEE22" fill-rule="nonzero"></path>
                    <path d="M20.0468048,1.35474957 C20.0468048,1.35474957 13.1500864,38.4953368 13.1243523,38.6487047 C13.6905009,38.6487047 50.2328152,38.6487047 50.6188256,38.6487047 C50.6445596,38.5464594 57.515544,1.50811744 57.5412781,1.35474957 C57.0008636,1.35474957 20.0468048,1.35474957 20.0468048,1.35474957 Z M49.8725389,37.6773748 C48.5343696,37.6773748 16.2381693,37.6773748 14.3081174,37.6773748 C14.3853195,37.2683938 20.7416235,2.6328152 20.7930915,2.35164076 C22.1312608,2.35164076 54.4274611,2.35164076 56.357513,2.35164076 C56.2803109,2.76062176 55.9200345,4.67772021 55.4310881,7.41278066 C54.1958549,14.1098446 49.9240069,37.370639 49.8725389,37.6773748 Z" id="Shape" fill="#FFFFFF" fill-rule="nonzero"></path>
                    <path d="M20.7930915,2.32607945 C20.7930915,2.32607945 20.3813472,4.54991364 19.8666667,7.38721934 C18.6314335,14.0842832 16.4955095,25.7913644 15.2602763,32.5395509 C14.7455959,35.3001727 14.3853195,37.2428325 14.3081174,37.6518135 C16.2381693,37.6518135 49.8725389,37.6518135 49.8725389,37.6518135 C49.8725389,37.6518135 54.1958549,14.0842832 55.4310881,7.36165803 C55.9200345,4.62659758 56.2803109,2.73506045 56.357513,2.30051813 C54.4274611,2.32607945 20.7930915,2.32607945 20.7930915,2.32607945 Z" id="Shape" fill="#EC2127" fill-rule="nonzero"></path>
                    <g id="Group" transform="translate(56.100173, 13.036269)" fill-rule="nonzero" fill="#000000">
                        <polygon id="Shape" points="5.71295337 13.1896373 6.15043178 10.633506 4.09170984 10.633506 5.91882556 0.383419689 2.47046632 0.383419689 0.205872193 13.1896373"></polygon>
                        <polygon id="Shape" points="12.9442142 10.633506 10.4480138 10.633506 10.9369603 7.82176166 13.0728843 7.82176166 13.5103627 5.36787565 11.3744387 5.36787565 11.8119171 2.93955095 14.1022453 2.93955095 14.5397237 0.383419689 8.82677029 0.383419689 6.56217617 13.1896373 12.4810017 13.1896373"></polygon>
                        <path d="M15.3889465,6.41588946 C15.6205527,6.67150259 16.1094991,7.05492228 16.8815199,7.61727116 C17.6278066,8.15405872 18.091019,8.53747841 18.2711572,8.76753022 C18.4255613,8.99758204 18.4512953,9.50880829 18.3226252,10.2500864 C18.2711572,10.6079447 18.1682211,10.8635579 18.0138169,11.042487 C17.8594128,11.2214162 17.6792746,11.2981002 17.4734024,11.2981002 C17.2417962,11.2981002 17.0873921,11.2214162 17.035924,11.0936097 C16.9587219,10.9658031 16.984456,10.633506 17.061658,10.1478411 L17.3447323,8.56303972 L14.1537133,8.56303972 L13.9993092,9.40656304 C13.819171,10.3778929 13.793437,11.119171 13.8963731,11.6303972 C13.9993092,12.1671848 14.3595855,12.5761658 14.951468,12.9340242 C15.5433506,13.2663212 16.2896373,13.4452504 17.2160622,13.4452504 C18.0395509,13.4452504 18.8115717,13.2918826 19.4806563,13.0107081 C20.175475,12.7039724 20.6644214,12.346114 20.9474957,11.9115717 C21.256304,11.4770294 21.4879102,10.8124352 21.6423143,9.89222798 C21.8739206,8.63972366 21.8224525,7.71951641 21.5393782,7.15716753 C21.256304,6.59481865 20.4070812,5.8791019 19.0431779,4.98445596 C18.5542314,4.67772021 18.2968912,4.42210708 18.2196891,4.19205527 C18.142487,3.98756477 18.142487,3.6552677 18.2196891,3.22072539 C18.2711572,2.88842832 18.3740933,2.6328152 18.5027634,2.47944732 C18.6314335,2.32607945 18.8115717,2.2238342 18.9917098,2.2238342 C19.171848,2.2238342 19.3005181,2.27495682 19.3519862,2.40276339 C19.4034542,2.53056995 19.4034542,2.81174439 19.3262522,3.27184801 L19.146114,4.24317789 L22.337133,4.24317789 L22.4143351,3.73195164 C22.5944732,2.70949914 22.6202073,1.99378238 22.4915371,1.55924007 C22.362867,1.12469775 22.0025907,0.766839378 21.4364421,0.48566494 C20.8445596,0.204490501 20.1240069,0.0766839378 19.2233161,0.0766839378 C18.3998273,0.0766839378 17.6792746,0.204490501 17.061658,0.460103627 C16.4440415,0.715716753 15.955095,1.07357513 15.6205527,1.53367876 C15.2860104,1.99378238 15.0286701,2.70949914 14.848532,3.68082902 C14.7198618,4.37098446 14.7198618,4.93333333 14.8227979,5.36787565 C14.9772021,5.82797927 15.1573402,6.18583765 15.3889465,6.41588946 Z" id="Shape"></path>
                        <path d="M26.5317789,12.9595855 C27.1236615,13.2918826 27.8699482,13.4708117 28.7963731,13.4708117 C29.6455959,13.4708117 30.3918826,13.3174439 31.0867012,13.0362694 C31.7557858,12.7295337 32.2447323,12.3716753 32.5535406,11.937133 C32.8623489,11.5025907 33.0939551,10.8379965 33.2483592,9.91778929 C33.4799655,8.66528497 33.4284974,7.74507772 33.1454231,7.18272884 C32.8623489,6.62037997 32.0131261,5.90466321 30.6492228,5.01001727 C30.1602763,4.70328152 29.9029361,4.44766839 29.825734,4.21761658 C29.748532,4.01312608 29.748532,3.68082902 29.825734,3.2462867 C29.8772021,2.91398964 29.9801382,2.65837651 30.1088083,2.50500864 C30.2374784,2.35164076 30.4176166,2.24939551 30.5977547,2.24939551 C30.7778929,2.24939551 30.906563,2.30051813 30.9580311,2.4283247 C31.0094991,2.55613126 31.0094991,2.8373057 30.9322971,3.29740933 L30.7521589,4.26873921 L33.9431779,4.26873921 L34.02038,3.75751295 C34.2005181,2.73506045 34.2262522,2.0193437 34.097582,1.58480138 C33.9689119,1.15025907 33.6086356,0.792400691 33.042487,0.511226252 C32.4763385,0.230051813 31.7300518,0.10224525 30.829361,0.10224525 C30.0058722,0.10224525 29.2853195,0.230051813 28.6677029,0.48566494 C28.0500864,0.741278066 27.5611399,1.09913644 27.2265976,1.55924007 C26.8920553,2.0193437 26.634715,2.73506045 26.4545769,3.70639033 C26.3259067,4.39654577 26.3259067,4.95889465 26.4288428,5.39343696 C26.5317789,5.82797927 26.6861831,6.18583765 26.9435233,6.41588946 C27.1751295,6.67150259 27.664076,7.05492228 28.4360967,7.61727116 C29.1823834,8.15405872 29.6713299,8.53747841 29.825734,8.76753022 C29.9801382,8.99758204 30.0058722,9.50880829 29.8772021,10.2500864 C29.825734,10.6079447 29.7227979,10.8635579 29.5683938,11.042487 C29.4139896,11.2214162 29.2338515,11.2981002 29.0279793,11.2981002 C28.7963731,11.2981002 28.6419689,11.2214162 28.5905009,11.0936097 C28.5132988,10.9658031 28.5390328,10.633506 28.6162349,10.1478411 L28.8993092,8.56303972 L25.7340242,8.56303972 L25.57962,9.40656304 C25.3994819,10.3778929 25.3737478,11.119171 25.4766839,11.6303972 C25.6053541,12.1927461 25.9398964,12.6017271 26.5317789,12.9595855 Z" id="Shape"></path>
                        <path d="M34.2519862,11.451468 C34.3549223,12.0649396 34.6894646,12.5761658 35.2813472,12.9084629 C35.8732297,13.2663212 36.6709845,13.4452504 37.6746114,13.4452504 C38.6525043,13.4452504 39.5017271,13.2407599 40.2222798,12.8317789 C40.9685665,12.4227979 41.483247,11.937133 41.7663212,11.3747841 C42.0493955,10.8124352 42.3324698,9.89222798 42.564076,8.56303972 L42.6412781,8.05181347 L39.1929188,8.05181347 L38.9098446,9.66217617 C38.7811744,10.3778929 38.6525043,10.8124352 38.5495682,11.0169257 C38.4466321,11.1958549 38.2407599,11.2981002 38.0091537,11.2981002 C37.7518135,11.2981002 37.5974093,11.1958549 37.5459413,11.0169257 C37.4944732,10.8379965 37.5459413,10.4290155 37.6488774,9.78998273 L38.7039724,3.83419689 C38.8326425,3.16960276 38.9355786,2.76062176 39.0385147,2.55613126 C39.1414508,2.35164076 39.347323,2.24939551 39.6303972,2.24939551 C39.8877375,2.24939551 40.0164076,2.32607945 40.0678756,2.47944732 C40.1193437,2.6328152 40.0678756,3.0417962 39.9649396,3.70639033 L39.5789292,5.93022453 L43.0272884,5.93022453 L43.2331606,4.70328152 C43.4390328,3.50189983 43.4905009,2.6328152 43.3875648,2.07046632 C43.2846287,1.50811744 42.9243523,1.0224525 42.3324698,0.664594128 C41.7405872,0.281174439 40.9428325,0.10224525 39.9392055,0.10224525 C39.1929188,0.10224525 38.5238342,0.230051813 37.8804836,0.460103627 C37.262867,0.715716753 36.7481865,1.04801382 36.3621762,1.45699482 C35.9761658,1.89153713 35.6930915,2.32607945 35.5386874,2.78618307 C35.3842832,3.2462867 35.2298791,3.93644214 35.075475,4.8566494 L34.4063903,8.58860104 C34.2005181,9.89222798 34.1490501,10.8379965 34.2519862,11.451468 Z" id="Shape"></path>
                        <polygon id="Shape" points="46.4499136 13.1896373 47.4020725 7.82176166 48.4056995 7.82176166 47.4535406 13.1896373 50.8761658 13.1896373 53.166494 0.383419689 49.7181347 0.383419689 48.92038 4.95889465 47.916753 4.95889465 48.7145078 0.383419689 45.2661485 0.383419689 43.0015544 13.1896373"></polygon>
                        <path d="M57.3611399,13.1896373 C58.4419689,9.78998273 59.1882556,7.54058722 59.5227979,6.44145078 C59.3941278,8.97202073 59.3426598,11.2214162 59.3683938,13.1896373 L63.6402418,13.1896373 L67.4488774,0.383419689 L64.1034542,0.383419689 C63.1512953,3.34853195 62.2763385,6.39032815 61.5300518,9.50880829 L61.9932642,4.62659758 C62.2248705,2.17271157 62.3535406,0.766839378 62.3792746,0.383419689 L58.8279793,0.383419689 C57.6956822,4.01312608 56.8464594,6.95267703 56.3060449,9.20207254 L56.7177893,4.8566494 L57.1552677,0.383419689 L53.8098446,0.383419689 L53.0892919,13.1896373 L57.3611399,13.1896373 Z" id="Shape"></path>
                        <path d="M68.5039724,13.1896373 L69.0958549,10.8891192 L70.3568221,10.8891192 L70.1252159,13.1896373 L73.6250432,13.1896373 L73.9081174,0.383419689 L68.9671848,0.383419689 L64.952677,13.1896373 L68.5039724,13.1896373 Z M71.0773748,3.22072539 C70.8715026,5.36787565 70.7170984,7.18272884 70.6398964,8.61416235 L69.5075993,8.61416235 C69.7906736,7.48946459 70.3310881,5.6746114 71.0773748,3.22072539 Z" id="Shape"></path>
                        <path d="M80.9592401,12.9595855 C81.4224525,12.8062176 81.8084629,12.5250432 82.0915371,12.1160622 C82.3746114,11.7070812 82.5804836,11.0680484 82.7348877,10.1989637 L82.9407599,8.99758204 C83.0951641,8.15405872 83.0694301,7.54058722 82.8378238,7.13160622 C82.6319516,6.72262522 82.1430052,6.44145078 81.3709845,6.26252159 C82.1172712,6.10915371 82.6319516,5.8791019 82.9150259,5.57236615 C83.2238342,5.2656304 83.4297064,4.75440415 83.5583765,4.01312608 C83.7642487,2.91398964 83.7385147,2.09602763 83.4811744,1.61036269 C83.2238342,1.09913644 82.8378238,0.792400691 82.2974093,0.613471503 C81.7827288,0.460103627 80.9592401,0.357858377 79.8784111,0.357858377 L76.4557858,0.357858377 L74.1911917,13.164076 L78.1542314,13.164076 C79.5696028,13.1896373 80.4960276,13.1129534 80.9592401,12.9595855 Z M79.5696028,2.55613126 C79.9041451,2.55613126 80.1357513,2.58169257 80.2644214,2.6328152 C80.3673575,2.68393782 80.4445596,2.78618307 80.4960276,2.93955095 C80.5474957,3.09291883 80.5217617,3.37409326 80.4445596,3.78307427 C80.3158895,4.54991364 80.1872193,4.98445596 80.0585492,5.16338515 C79.9298791,5.31675302 79.7240069,5.39343696 79.3894646,5.39343696 C79.3122625,5.39343696 79.2093264,5.39343696 79.0549223,5.39343696 L79.5696028,2.55613126 Z M78.6946459,7.41278066 C79.1835924,7.43834197 79.4924007,7.48946459 79.5696028,7.61727116 C79.6725389,7.74507772 79.6725389,8.07737478 79.5696028,8.61416235 L79.3637306,9.81554404 C79.2607945,10.3267703 79.1578584,10.6590674 79.0034542,10.7868739 C78.8490501,10.9146805 78.5402418,10.9913644 78.0512953,11.0169257 L78.6946459,7.41278066 Z" id="Shape"></path>
                    </g>
                    <g id="Group" transform="translate(19.815199, 7.412781)" fill-rule="nonzero" fill="#FFFFFF">
                        <path d="M0.643350604,3.01623489 L3.0880829,3.01623489 L0.128670121,20.7813472 L3.37115717,20.8580311 L6.40777202,3.0417962 L9.21278066,3.0417962 L9.59879102,0.0255613126 C6.45924007,0.0255613126 3.57702936,0.0255613126 1.02936097,0.0255613126 L0.643350604,3.01623489 Z" id="Shape"></path>
                        <polygon id="Shape" points="10.8082902 6.79930915 7.46286701 6.79930915 5.79015544 17.5861831 9.13557858 17.5861831"></polygon>
                        <path d="M13.5360967,17.5861831 L14.2051813,13.3174439 C14.3595855,12.2694301 14.5139896,11.6048359 14.6169257,11.3236615 C14.7198618,11.042487 14.925734,10.8124352 15.2345423,10.633506 C15.5433506,10.4801382 15.980829,10.3778929 16.5727116,10.3778929 L17.1645941,6.56925734 C16.2639033,6.62037997 15.4918826,7.18272884 14.848532,8.20518135 L15.1830743,6.77374784 L11.9405872,6.77374784 L10.2678756,17.5606218 L13.5360967,17.5606218 L13.5360967,17.5861831 Z" id="Shape"></path>
                        <path d="M16.5727116,15.5157168 C16.6241796,15.9502591 16.7528497,16.3336788 17.01019,16.6659758 C17.2417962,17.0238342 17.6020725,17.3050086 18.116753,17.4839378 C18.6056995,17.6884283 19.197582,17.7906736 19.8924007,17.7906736 C20.6129534,17.7906736 21.2048359,17.6884283 21.6937824,17.4839378 C22.1827288,17.2794473 22.6202073,16.9727116 22.9804836,16.5637306 C23.3407599,16.1547496 23.5981002,15.7713299 23.7525043,15.4134715 C23.8811744,15.0556131 24.0098446,14.5443869 24.1127807,13.8797927 L24.2414508,13.0873921 L21.1791019,13.0873921 L20.9732297,14.5188256 C20.8960276,15.0556131 20.7930915,15.4134715 20.6901554,15.5924007 C20.5872193,15.7713299 20.4070812,15.8735751 20.1497409,15.8735751 C19.9438687,15.8735751 19.8151986,15.7968912 19.7637306,15.6690846 C19.7122625,15.5157168 19.7379965,15.208981 19.8151986,14.7233161 L20.175475,12.3972366 L24.3701209,12.3972366 L24.6017271,10.9658031 C24.7561313,9.91778929 24.7818653,9.09982729 24.6274611,8.5119171 C24.473057,7.92400691 24.1385147,7.46390328 23.5981002,7.10604491 C23.0576857,6.74818653 22.337133,6.56925734 21.4107081,6.56925734 C20.6644214,6.56925734 19.9953368,6.72262522 19.3777202,7.00379965 C18.7601036,7.28497409 18.2711572,7.71951641 17.9366149,8.25630397 C17.6020725,8.79309154 17.3704663,9.55993092 17.2160622,10.5056995 L16.7271157,13.6497409 C16.5469775,14.4677029 16.5212435,15.0811744 16.5727116,15.5157168 Z M20.5357513,9.84110535 C20.6386874,9.22763385 20.7158895,8.84421416 20.7930915,8.7164076 C20.8702936,8.58860104 21.0246978,8.5119171 21.256304,8.5119171 C21.4364421,8.5119171 21.5393782,8.58860104 21.5908463,8.76753022 C21.6165803,8.9208981 21.5908463,9.30431779 21.5136442,9.86666667 L21.3849741,10.6590674 L20.4328152,10.6590674 L20.5357513,9.84110535 Z" id="Shape"></path>
                        <path d="M25.9913644,17.4072539 C26.5317789,17.662867 27.2265976,17.7906736 28.0500864,17.7906736 C28.7963731,17.7906736 29.4397237,17.662867 30.0058722,17.4328152 C30.5720207,17.2027634 31.0094991,16.844905 31.2925734,16.4103627 C31.5756477,15.9502591 31.8072539,15.2856649 31.935924,14.4165803 C32.0645941,13.6241796 32.0131261,13.0362694 31.7557858,12.6272884 C31.5241796,12.2183074 30.9580311,11.7837651 30.0830743,11.2981002 C29.4397237,10.9402418 29.0022453,10.6846287 28.7963731,10.4801382 C28.5905009,10.301209 28.4875648,10.1222798 28.4618307,9.96891192 C28.4360967,9.81554404 28.4618307,9.55993092 28.5132988,9.22763385 C28.5390328,8.97202073 28.6162349,8.79309154 28.744905,8.66528497 C28.8478411,8.53747841 29.0022453,8.48635579 29.1823834,8.48635579 C29.4139896,8.48635579 29.5426598,8.56303972 29.5683938,8.69084629 C29.6198618,8.81865285 29.5941278,9.1253886 29.5169257,9.63661485 L29.4397237,10.224525 L32.3219344,10.224525 L32.4248705,9.58549223 C32.5020725,9.04870466 32.5535406,8.63972366 32.5278066,8.38411054 C32.5020725,8.12849741 32.3991364,7.84732297 32.1675302,7.56614853 C31.935924,7.25941278 31.6013817,7.02936097 31.1381693,6.85043178 C30.6749568,6.67150259 30.0830743,6.56925734 29.3625216,6.56925734 C28.6419689,6.56925734 27.9986183,6.67150259 27.4324698,6.9015544 C26.8663212,7.13160622 26.4288428,7.43834197 26.1457686,7.84732297 C25.8626943,8.25630397 25.6568221,8.89533679 25.502418,9.76442142 C25.3994819,10.3778929 25.4252159,10.8891192 25.57962,11.3492228 C25.7082902,11.7837651 26.2229706,12.2949914 27.0979275,12.8317789 C28.1272884,13.4708117 28.719171,13.8542314 28.8221071,13.982038 C28.9250432,14.1098446 28.9250432,14.4421416 28.8478411,14.9533679 C28.7963731,15.3367876 28.693437,15.5668394 28.5905009,15.6946459 C28.4875648,15.8224525 28.3074266,15.8735751 28.0758204,15.8735751 C27.8699482,15.8735751 27.7412781,15.7968912 27.68981,15.617962 C27.638342,15.4390328 27.664076,15.0811744 27.7670121,14.4932642 L27.8699482,13.8031088 L24.9877375,13.8031088 L24.9105354,14.3143351 C24.7818653,15.208981 24.7818653,15.8991364 24.9362694,16.3336788 C25.0906736,16.7937824 25.4252159,17.1516408 25.9913644,17.4072539 Z" id="Shape"></path>
                        <path d="M9.59879102,6.41588946 C10.4480138,6.41588946 11.0913644,5.75129534 11.0656304,4.95889465 C11.0141623,4.14093264 10.3193437,3.50189983 9.4701209,3.50189983 C8.6208981,3.50189983 7.9775475,4.16649396 8.00328152,4.95889465 C8.02901554,5.75129534 8.74956822,6.41588946 9.59879102,6.41588946 Z" id="Shape"></path>
                    </g>
                </g>
            </g>
        </g>
    </g>
</svg>