<svg id="Layer_1" data-name="Layer 1" xmlns="http://www.w3.org/2000/svg" viewBox="0 0 298.92 52.9"><defs><style>.cls-1{fill:#007377;}</style></defs><title>PHOTOBOX_RGB_SMALL USE</title><g id="LOGO"><path class="cls-1" d="M39,49.2H29.6V59.3a2.39,2.39,0,0,1-2.5,2.4,2.37,2.37,0,0,1-2.4-2.4v-26a2.37,2.37,0,0,1,2.4-2.4H39c7.1,0,10.4,4.4,10.4,9.2S46.1,49.2,39,49.2Zm.7-13.8h-10v9.3h10a4.46,4.46,0,0,0,4.8-4.6A4.53,4.53,0,0,0,39.7,35.4ZM83.2,61.8a2.37,2.37,0,0,1-2.4-2.4V48.2H65.7V59.3a2.31,2.31,0,0,1-2.4,2.4,2.37,2.37,0,0,1-2.4-2.4v-26a2.4,2.4,0,0,1,4.8,0V43.7H80.8V33.3a2.4,2.4,0,1,1,4.8,0v26A2.39,2.39,0,0,1,83.2,61.8Zm86.1-26.3h-8.9V59.3a2.48,2.48,0,0,1-2.5,2.5,2.39,2.39,0,0,1-2.4-2.5V35.5h-8.9a2.3,2.3,0,1,1,0-4.6h22.7a2.3,2.3,0,0,1,0,4.6ZM193.8,62a15.39,15.39,0,0,1-15.3-15.7A15.31,15.31,0,1,1,193.8,62Zm0-26.8c-6.3,0-10.5,5.2-10.5,11.2s4.2,11.2,10.5,11.2,10.5-5.2,10.5-11.2S200.1,35.2,193.8,35.2Zm41.7,26.6H224a2.48,2.48,0,0,1-2.5-2.5V33.4a2.48,2.48,0,0,1,2.5-2.5h10.7c5.9,0,9.4,3.1,9.4,7.6,0,3-1.3,5.6-3.7,6.8a8,8,0,0,1,5.5,7.9C246,58,242.1,61.8,235.5,61.8Zm-.4-26.3h-8.5v7.8h8.5a3.9,3.9,0,1,0,0-7.8Zm1.1,12.2h-9.6v9.5h9.6a4.68,4.68,0,0,0,4.9-4.7A4.76,4.76,0,0,0,236.2,47.7ZM272.4,62a15.39,15.39,0,0,1-15.3-15.7A15.31,15.31,0,1,1,272.4,62Zm0-26.8c-6.3,0-10.5,5.2-10.5,11.2s4.2,11.2,10.5,11.2,10.5-5.2,10.5-11.2S278.7,35.2,272.4,35.2Zm50.5,26.2a2.39,2.39,0,0,1-1.4.5,2.46,2.46,0,0,1-1.9-.9l-8.3-11L303,61a2.43,2.43,0,0,1-1.8.9,2.39,2.39,0,0,1-1.4-.5,2.14,2.14,0,0,1-.8-1.7,1.87,1.87,0,0,1,.5-1.4l9-11.9-9-11.9a2.39,2.39,0,0,1-.5-1.4,2.1,2.1,0,0,1,1-1.8,2.84,2.84,0,0,1,1.2-.4,2.14,2.14,0,0,1,1.8.9l8.2,10.9,8.3-10.9a2.23,2.23,0,0,1,1.7-.9,2.39,2.39,0,0,1,1.4.5,2.43,2.43,0,0,1,.9,1.8,1.9,1.9,0,0,1-.5,1.3l-9,11.8,9.1,11.9a2.65,2.65,0,0,1,.5,1.4A2.09,2.09,0,0,1,322.9,61.4ZM112.2,21.1c0,1.4.9,4.8,1.3,7.8s.4,5.5,1.6,5.5c.8,0,1.3-.6,1.3-1.6s.9-4.6.9-7.7c0-1,.4-1.2.4-2.7s-.6-4.1-3-4.1A2.57,2.57,0,0,0,112.2,21.1Zm11.3,19.5c2.9,0,8.1-5.2,9.3-5.6a3.44,3.44,0,0,0,2-1.5,2.75,2.75,0,0,1,2.1-1.4c.7-.3,1.9-.9,1.9-1.8s-.4-1.2-1-1.2c-3.9,0-16.6,5.9-16.6,9.5A2.21,2.21,0,0,0,123.5,40.6Zm-3.7,9c0,2,1.9,1.4,2.1,3.4.2,1.6,1.9,3.6,3,4.5,2,1.5,2.7,5.2,5.6,5.2a1.67,1.67,0,0,0,1.9-1.7c0-4.3-8.1-12.8-11.4-12.8C120.3,48.2,119.8,48.6,119.8,49.6ZM96.6,69c0,1.3.3,2.2,1.8,2.2,2.8,0,4.4-5.1,6.9-9.8,2.2-4.2,3.6-5.6,4.8-8.6.5-1.4,1.9-.9,1.9-2.3,0-.9-.7-1.2-1.5-1.2C106.5,49.3,96.6,64.9,96.6,69Zm7.8-28.2c1.6,0,4,1.9,4-.1,0-2.8-6.8-6.4-10.2-6.4-1.4,0-2.1.7-2.1,1.7C96.2,40.1,102.9,40.8,104.4,40.8Z" transform="translate(-24.7 -18.3)"/></g></svg>